{"title":"Meet the Spartans*2008*[BluRay][1080p][ENG, POL, sub. CZE]","uid":5929643,"size":8777442537,"categoryP":"video","categoryS":"hd___movies","magnet":"?xt=urn:btih:40572fbd260d5c5deda16d751414a8da70bd01de&amp;dn=Meet+the+Spartans%2A2008%2A%5BBluRay%5D%5B1080p%5D%5BENG%2C+POL%2C+sub.+CZE%5D&amp;tr=udp%3A%2F%2Ftracker.openbittorrent.com%3A80&amp;tr=udp%3A%2F%2Fopen.demonii.com%3A1337&amp;tr=udp%3A%2F%2Ftracker.coppersurfer.tk%3A6969&amp;tr=udp%3A%2F%2Fexodus.desync.com%3A6969","seeders":1,"leechers":3,"uploader":"albedo040","files":1,"time":1288725898,"description":"Meet the Spartans*2008*[BluRay][1080p][ENG, POL, sub. CZE]\n\nGeneral information:\nCountry: USA\nRelease: 24 January 2008\nGenre: Comedy\nDirector: Jason Friedberg, Aaron Seltzer\nScreenplay: Jason Friedberg, Aaron Seltzer\nOriginal Music: Christopher Lennertz \nCinematography by: Shawn Maurer \nDuration: 1h 26mn\nLanguage: English, Polish\nSubtitles: English, Polish, Czech\nRating: 5.4/10 - 10119 votes\n\nCast:\nSean Maguire  ...  Leonidas  \nCarmen Electra  ...  Queen Margo  \nKen Davitian  ...  Xerxes  \nKevin Sorbo  ...  Captain  \nDiedrich Bader  ...  Traitoro  \nMethod Man  ...  Persian Emissary  \nJareb Dauplaise  ...  Dilio  \nTravis Van Winkle  ...  Sonio  \nPhil Morris  ...  Messenger  \nJim Piddock  ...  Loyalist / Simon Cowell Look-a-Like  \nNicole Parker  ...  Paula Abdul Look-a-Like / Britney Spears Look-a-Like / Ellen DeGeneres Look-a-Like / Hunchback Paris  \nIke Barinholtz  ...  Dane Cook Look-a-Like / Bond Villain / Prophet  \nCrista Flanagan  ...  Spartan Woman / Ugly Betty Look-a-Like  \nHunter Clary  ...  Leo Jr.  \nEmily Wilson  ...  Lindsay Lohan Look-a-Like  \n\nPlot:\nThe heroic Spartan king Leonidas, armed with nothing but leather underwear and a cape, leads a ragtag bunch of 13 Spartan misfit warriors to defend their homeland against thousands of invading Persians whom include the Ghost Rider, Rocky Balboa, the Autobots, and an ugly hunchbacked Paris Hilton and a shaved-head Brittany Spears.\n\nSpecifications:\nGeneral\nFormat                           : Matroska\nOverall bit rate                 : 13.5 Mbps\n\nVideo\nFormat                           : AVC\nFormat/Info                      : Advanced Video Codec\nFormat profile                   : &lt;a class=&quot;__cf_email__&quot; href=&quot;/cdn-cgi/l/email-protection&quot; data-cfemail=&quot;a4eccdc3cce4e8918a95&quot;&gt;[email&amp;#160;protected]&lt;/a&gt;&lt;script cf-hash='f9e31' type=&quot;text/javascript&quot;&gt;\n/* &lt;![CDATA[ */!function(){try{var t=&quot;currentScript&quot;in document?document.currentScript:function(){for(var t=document.getElementsByTagName(&quot;script&quot;),e=t.length;e--;)if(t[e].getAttribute(&quot;cf-hash&quot;))return t[e]}();if(t&amp;&amp;t.previousSibling){var e,r,n,i,c=t.previousSibling,a=c.getAttribute(&quot;data-cfemail&quot;);if(a){for(e=&quot;&quot;,r=parseInt(a.substr(0,2),16),n=2;a.length-n;n+=2)i=parseInt(a.substr(n,2),16)^r,e+=String.fromCharCode(i);e=document.createTextNode(e),c.parentNode.replaceChild(e,c)}}}catch(u){}}();/* ]]&gt; */&lt;/script&gt;\nFormat settings, CABAC           : Yes\nFormat settings, ReFrames        : 5 frames\nMuxing mode                      : Container profile=&lt;a class=&quot;__cf_email__&quot; href=&quot;/cdn-cgi/l/email-protection&quot; data-cfemail=&quot;aaffc4c1c4c5ddc4ea9f849b&quot;&gt;[email&amp;#160;protected]&lt;/a&gt;&lt;script cf-hash='f9e31' type=&quot;text/javascript&quot;&gt;\n/* &lt;![CDATA[ */!function(){try{var t=&quot;currentScript&quot;in document?document.currentScript:function(){for(var t=document.getElementsByTagName(&quot;script&quot;),e=t.length;e--;)if(t[e].getAttribute(&quot;cf-hash&quot;))return t[e]}();if(t&amp;&amp;t.previousSibling){var e,r,n,i,c=t.previousSibling,a=c.getAttribute(&quot;data-cfemail&quot;);if(a){for(e=&quot;&quot;,r=parseInt(a.substr(0,2),16),n=2;a.length-n;n+=2)i=parseInt(a.substr(n,2),16)^r,e+=String.fromCharCode(i);e=document.createTextNode(e),c.parentNode.replaceChild(e,c)}}}catch(u){}}();/* ]]&gt; */&lt;/script&gt;\nCodec ID                         : V_MPEG4/ISO/AVC\nBit rate                         : 11.6 Mbps\nWidth                            : 1 920 pixels\nHeight                           : 1 040 pixels\nDisplay aspect ratio             : 16:9\nFrame rate                       : 23.976 fps\n\nAudio 1\nFormat                           : DTS\nFormat/Info                      : Digital Theater Systems\nCodec ID                         : A_DTS\nBit rate mode                    : Constant\nBit rate                         : 1 510 Kbps\nChannel(s)                       : 6 channels\nChannel positions                : Front: L C R, Side: L R, LFE\nSampling rate                    : 48.0 KHz\nBit depth                        : 24 bits\nStream size                      : 933 MiB (11%)\nTitle                            : English\n\nAudio 2\nFormat                           : AC-3\nFormat/Info                      : Audio Coding 3\nMode extension                   : CM (complete main)\nCodec ID                         : A_AC3\nBit rate mode                    : Constant\nBit rate                         : 384 Kbps\nChannel(s)                       : 6 channels\nChannel positions                : Front: L C R, Side: L R, LFE\nSampling rate                    : 48.0 KHz\nStream size                      : 237 MiB (3%)\nTitle                            : Polish\nLanguage                         : Polish\n\nText \nFormat                           : UTF-8\nCodec ID                         : S_TEXT/UTF8\nCodec ID/Info                    : UTF-8 Plain Text\n","torrent":{"xt":"urn:btih:40572fbd260d5c5deda16d751414a8da70bd01de","amp;dn":"Meet+the+Spartans%2A2008%2A%5BBluRay%5D%5B1080p%5D%5BENG%2C+POL%2C+sub.+CZE%5D","amp;tr":["udp%3A%2F%2Ftracker.openbittorrent.com%3A80","udp%3A%2F%2Fopen.demonii.com%3A1337","udp%3A%2F%2Ftracker.coppersurfer.tk%3A6969","udp%3A%2F%2Fexodus.desync.com%3A6969"],"infoHash":"40572fbd260d5c5deda16d751414a8da70bd01de","infoHashBuffer":{"type":"Buffer","data":[64,87,47,189,38,13,92,93,237,161,109,117,20,20,168,218,112,189,1,222]},"announce":[],"urlList":[]}}